<svg width="34" height="35" viewBox="0 0 34 35" fill="none" xmlns="http://www.w3.org/2000/svg">
<path d="M17.175 3.4475C9.75517 3.4475 3.66452 9.7825 3.66452 17.5C3.66452 25.2175 9.75517 31.5525 17.175 31.5525C24.5948 31.5525 30.6855 25.2175 30.6855 17.5C30.6855 9.7825 24.5948 3.4475 17.175 3.4475ZM17.175 -1.47089e-06C26.496 -6.56016e-07 34 7.805 34 17.5C34 27.195 26.496 35 17.175 35C7.85394 35 0.349995 27.195 0.349996 17.5C0.349997 7.805 7.85395 -2.28576e-06 17.175 -1.47089e-06ZM20.3381 16.6775L23.905 20.37L23.905 10.5L14.4157 10.5L17.9658 14.21L9.60375 22.925L11.9592 25.375" fill="#3478CC"/>
</svg>
