<svg viewBox="0 0 35 35" fill="none" xmlns="http://www.w3.org/2000/svg">
<path d="M17.5 24.5C17.9958 24.5 18.4117 24.332 18.7477 23.996C19.0837 23.66 19.2512 23.2447 19.25 22.75V17.15L20.825 18.725C21.1458 19.0458 21.5542 19.2062 22.05 19.2062C22.5458 19.2062 22.9542 19.0458 23.275 18.725C23.5958 18.4042 23.7562 17.9958 23.7562 17.5C23.7562 17.0042 23.5958 16.5958 23.275 16.275L18.725 11.725C18.55 11.55 18.3604 11.4263 18.1562 11.354C17.9521 11.2817 17.7333 11.2449 17.5 11.2437C17.2667 11.2437 17.0479 11.2805 16.8437 11.354C16.6396 11.4275 16.45 11.5512 16.275 11.725L11.725 16.275C11.4042 16.5958 11.2437 17.0042 11.2437 17.5C11.2437 17.9958 11.4042 18.4042 11.725 18.725C12.0458 19.0458 12.4542 19.2062 12.95 19.2062C13.4458 19.2062 13.8542 19.0458 14.175 18.725L15.75 17.15V22.75C15.75 23.2458 15.918 23.6617 16.254 23.9977C16.59 24.3337 17.0053 24.5012 17.5 24.5ZM17.5 35C15.0792 35 12.8042 34.5403 10.675 33.621C8.54583 32.7017 6.69375 31.4551 5.11875 29.8812C3.54375 28.3062 2.29717 26.4542 1.379 24.325C0.460833 22.1958 0.00116667 19.9208 0 17.5C0 15.0792 0.459667 12.8042 1.379 10.675C2.29833 8.54583 3.54492 6.69375 5.11875 5.11875C6.69375 3.54375 8.54583 2.29717 10.675 1.379C12.8042 0.460833 15.0792 0.00116667 17.5 0C19.9208 0 22.1958 0.459667 24.325 1.379C26.4542 2.29833 28.3062 3.54492 29.8812 5.11875C31.4562 6.69375 32.7034 8.54583 33.6227 10.675C34.5421 12.8042 35.0012 15.0792 35 17.5C35 19.9208 34.5403 22.1958 33.621 24.325C32.7017 26.4542 31.4551 28.3062 29.8812 29.8812C28.3062 31.4562 26.4542 32.7034 24.325 33.6227C22.1958 34.5421 19.9208 35.0012 17.5 35Z" fill="#1C1C1C"/>
</svg>
