<svg width="35" height="35" viewBox="0 0 35 35" fill="none" xmlns="http://www.w3.org/2000/svg">
<mask id="mask0_196_164" style="mask-type:alpha" maskUnits="userSpaceOnUse" x="0" y="0" width="35" height="36">
<circle cx="17.5" cy="18" r="17.5" fill="#D9D9D9"/>
</mask>
<g mask="url(#mask0_196_164)">
<rect y="0.5" width="35" height="35" fill="#3478CC"/>
<path d="M28.777 12.1932C28.4045 12.0654 28.0289 11.947 27.6504 11.8381C27.714 11.5784 27.7725 11.3218 27.8245 11.0696C28.6773 6.92966 28.1198 3.59441 26.2154 2.49628C24.3895 1.44355 21.4035 2.54127 18.3877 5.16585C18.0905 5.42498 17.7999 5.69158 17.5161 5.96539C17.3262 5.78331 17.1329 5.60477 16.9363 5.42986C13.7756 2.62357 10.6076 1.44082 8.70529 2.54209C6.88105 3.5981 6.34088 6.73347 7.10869 10.657C7.18508 11.0456 7.27133 11.4322 7.36736 11.8164C6.91893 11.9438 6.48621 12.0794 6.07209 12.2238C2.36646 13.5158 0 15.5405 0 17.6406C0 19.8097 2.54051 21.9853 6.40008 23.3045C6.71298 23.411 7.02849 23.5097 7.34631 23.6005C7.24309 24.0143 7.15145 24.4309 7.0715 24.8498C6.33951 28.7053 6.91113 31.7665 8.73045 32.8159C10.6095 33.8995 13.7633 32.7858 16.8342 30.1013C17.0832 29.8831 17.3267 29.6586 17.5645 29.4282C17.8718 29.7247 18.1873 30.0126 18.5106 30.2915C21.4854 32.8511 24.4232 33.8847 26.2407 32.8325C28.118 31.7458 28.7282 28.4571 27.936 24.456C27.8736 24.1426 27.8036 23.8307 27.7262 23.5206C27.9476 23.455 28.165 23.3875 28.3769 23.3172C32.3894 21.9879 35 19.8386 35 17.6406C35 15.5328 32.5571 13.4945 28.777 12.1932ZM27.9068 21.898C27.7154 21.9613 27.519 22.0225 27.3189 22.0819C26.8759 20.6796 26.2782 19.1885 25.5466 17.6479C26.2447 16.144 26.8194 14.6719 27.25 13.2787C27.608 13.3824 27.9554 13.4916 28.2904 13.6069C31.5293 14.7219 33.5048 16.3704 33.5048 17.6406C33.5048 18.9936 31.3712 20.75 27.9068 21.898ZM26.4693 24.7464C26.8196 26.5156 26.8695 28.1152 26.6375 29.3658C26.4291 30.4894 26.0099 31.2385 25.4915 31.5386C24.3886 32.1771 22.0298 31.3472 19.4858 29.1581C19.1851 28.8988 18.8916 28.6312 18.6058 28.3555C19.5921 27.277 20.5777 26.0231 21.5396 24.6305C23.2317 24.4804 24.8302 24.2348 26.2798 23.8997C26.3496 24.1804 26.4128 24.4628 26.4693 24.7464ZM11.9323 31.4283C10.8546 31.8088 9.99633 31.8197 9.47748 31.5206C8.37348 30.8839 7.91451 28.4258 8.54055 25.1287C8.61496 24.7391 8.70017 24.3516 8.79607 23.9667C10.2297 24.2839 11.8166 24.512 13.5126 24.6495C14.4811 26.0122 15.4952 27.2647 16.5171 28.3614C16.2999 28.5716 16.0776 28.7764 15.8504 28.9756C14.4923 30.1626 13.1316 31.0047 11.9323 31.4283ZM6.88379 21.8897C5.17713 21.3063 3.7677 20.5482 2.80164 19.7209C1.93348 18.9776 1.49529 18.2394 1.49529 17.6406C1.49529 16.3661 3.39527 14.7405 6.56428 13.6357C6.94887 13.5017 7.35137 13.3753 7.76904 13.2566C8.20709 14.6812 8.78158 16.1708 9.47488 17.677C8.77256 19.2055 8.18986 20.7188 7.74758 22.1603C7.45748 22.0772 7.16946 21.987 6.88379 21.8897ZM8.57609 10.3698C7.91834 7.00828 8.35516 4.47255 9.45451 3.83613C10.6254 3.15828 13.2146 4.12474 15.9436 6.54794C16.1215 6.70632 16.2966 6.8679 16.4687 7.03261C15.4518 8.12458 14.4471 9.36777 13.4872 10.7224C11.8411 10.875 10.2654 11.12 8.81672 11.4482C8.72746 11.0909 8.64723 10.7312 8.57609 10.3698ZM23.6735 14.0978C23.3314 13.5068 22.9765 12.9232 22.6092 12.3474C23.7259 12.4886 24.7959 12.6761 25.8006 12.9052C25.499 13.8721 25.123 14.8829 24.6805 15.9192C24.357 15.3054 24.0213 14.6982 23.6735 14.0978ZM17.5168 8.10121C18.2064 8.84837 18.8971 9.6825 19.5765 10.5876C18.1984 10.5225 16.8179 10.5222 15.4398 10.5868C16.1198 9.69001 16.8164 8.85699 17.5168 8.10121ZM11.3206 14.1081C10.9772 14.7036 10.6477 15.3071 10.3325 15.918C9.89721 14.8853 9.52465 13.8699 9.22045 12.8894C10.219 12.666 11.2839 12.4833 12.3936 12.3447C12.0221 12.924 11.6644 13.512 11.3206 14.1081ZM12.4254 23.0429C11.279 22.915 10.1981 22.7417 9.19981 22.5244C9.50879 21.5263 9.88955 20.4893 10.3343 19.4345C10.6508 20.0459 10.9816 20.6497 11.3265 21.2455C11.6811 21.858 12.0483 22.4579 12.4254 23.0429ZM17.5581 27.2853C16.8494 26.5208 16.1425 25.6749 15.4522 24.7652C16.1224 24.7914 16.8056 24.8048 17.5 24.8048C18.2134 24.8048 18.9186 24.7888 19.6127 24.7579C18.9312 25.6841 18.2431 26.5312 17.5581 27.2853ZM24.6946 19.3806C25.1624 20.447 25.5567 21.4786 25.8698 22.4595C24.8551 22.6911 23.7594 22.8776 22.6049 23.0161C22.9749 22.4297 23.3331 21.8359 23.6794 21.2352C24.0315 20.6246 24.37 20.0063 24.6946 19.3806ZM22.3843 20.4882C21.8541 21.4092 21.2941 22.3127 20.7052 23.1973C19.6385 23.2728 18.5694 23.3104 17.5 23.3098C16.4108 23.3098 15.3513 23.2759 14.3311 23.2097C13.7269 22.3272 13.1562 21.4221 12.6204 20.4964C12.0871 19.5756 11.589 18.6349 11.1271 17.6763C11.5879 16.7175 12.0845 15.7763 12.616 14.8548L12.6159 14.855C13.1471 13.9332 13.7133 13.032 14.3129 12.1533C15.3538 12.0745 16.4212 12.0335 17.4999 12.0335C18.5835 12.0335 19.6524 12.0749 20.6929 12.1542C21.2866 13.0317 21.8491 13.9298 22.3794 14.8469C22.9126 15.7664 23.4158 16.7029 23.8882 17.6551C23.4207 18.617 22.9191 19.562 22.3843 20.4882ZM25.4687 3.79156C26.6406 4.4675 27.0964 7.19326 26.3601 10.7678C26.313 10.9958 26.2603 11.2281 26.2028 11.4637C24.7506 11.1284 23.1738 10.8792 21.5229 10.7243C20.5613 9.35478 19.5647 8.10968 18.5644 7.03179C18.8265 6.77907 19.0949 6.5329 19.3694 6.29351C21.9533 4.0449 24.3683 3.15705 25.4687 3.79156ZM17.5 14.5152C19.2261 14.5152 20.6254 15.9145 20.6254 17.6406C20.6254 19.3667 19.2261 20.766 17.5 20.766C15.7739 20.766 14.3746 19.3667 14.3746 17.6406C14.3746 15.9145 15.7739 14.5152 17.5 14.5152Z" fill="#00D8FF"/>
<path d="M8.75 33.25C13.5825 33.25 17.5 29.3325 17.5 24.5C17.5 19.6675 13.5825 15.75 8.75 15.75C3.91751 15.75 0 19.6675 0 24.5C0 29.3325 3.91751 33.25 8.75 33.25Z" fill="#FF4500"/>
<path d="M14.5708 24.5833C14.5708 23.874 13.9972 23.3107 13.2982 23.3107C12.9679 23.3102 12.6503 23.4373 12.4115 23.6654C11.5353 23.0394 10.3356 22.6327 9.0004 22.5805L9.58446 19.8474L11.483 20.2542C11.504 20.7341 11.9003 21.1201 12.3907 21.1201C12.8913 21.1201 13.2982 20.7133 13.2982 20.2124C13.2982 19.7117 12.8914 19.3049 12.3907 19.3049C12.036 19.3049 11.7229 19.5136 11.5769 19.8161L9.45943 19.3675C9.39682 19.357 9.3342 19.3675 9.29243 19.3989C9.24027 19.4302 9.20903 19.4823 9.19871 19.5449L8.55176 22.5908C7.19571 22.6327 5.97516 23.0394 5.08854 23.6758C4.84973 23.4477 4.53207 23.3207 4.20185 23.3212C3.49248 23.3212 2.9292 23.8948 2.9292 24.5938C2.9292 25.1153 3.24208 25.5534 3.68033 25.7518C3.65905 25.8793 3.64858 26.0084 3.64902 26.1377C3.64902 28.0987 5.93359 29.6949 8.75007 29.6949C11.5666 29.6949 13.8512 28.1092 13.8512 26.1377C13.8511 26.0084 13.8406 25.8794 13.8199 25.7518C14.2579 25.5534 14.5708 25.1048 14.5708 24.5833ZM5.82914 25.4908C5.82914 24.9901 6.23588 24.5833 6.73682 24.5833C7.23748 24.5833 7.64429 24.99 7.64429 25.4908C7.64429 25.9915 7.23755 26.3984 6.73682 26.3984C6.23595 26.4087 5.82914 25.9915 5.82914 25.4908ZM10.9094 27.9005C10.2835 28.5265 9.09426 28.5682 8.75007 28.5682C8.39542 28.5682 7.20624 28.5159 6.5906 27.9005C6.49688 27.8067 6.49688 27.6606 6.5906 27.5667C6.68452 27.473 6.83054 27.473 6.92446 27.5667C7.32095 27.9632 8.15548 28.0987 8.75007 28.0987C9.34473 28.0987 10.1896 27.9631 10.5755 27.5667C10.6695 27.473 10.8155 27.473 10.9094 27.5667C10.9928 27.6606 10.9928 27.8067 10.9094 27.9005ZM10.7424 26.4088C10.2417 26.4088 9.83493 26.002 9.83493 25.5013C9.83493 25.0006 10.2417 24.5938 10.7424 24.5938C11.2433 24.5938 11.65 25.0006 11.65 25.5013C11.65 25.9914 11.2433 26.4088 10.7424 26.4088Z" fill="white"/>
</g>
</svg>
